<svg id="visual" viewBox="0 0 960 300" width="960" height="300" xmlns="http://www.w3.org/2000/svg" xmlns:xlink="http://www.w3.org/1999/xlink" version="1.1"><rect x="0" y="0" width="960" height="300" fill="#001220"></rect><path d="M0 117L22.8 111.7C45.7 106.3 91.3 95.7 137 92.2C182.7 88.7 228.3 92.3 274 96C319.7 99.7 365.3 103.3 411.2 101.7C457 100 503 93 548.8 94.2C594.7 95.3 640.3 104.7 686 109.8C731.7 115 777.3 116 823 117.2C868.7 118.3 914.3 119.7 937.2 120.3L960 121L960 0L937.2 0C914.3 0 868.7 0 823 0C777.3 0 731.7 0 686 0C640.3 0 594.7 0 548.8 0C503 0 457 0 411.2 0C365.3 0 319.7 0 274 0C228.3 0 182.7 0 137 0C91.3 0 45.7 0 22.8 0L0 0Z" fill="#6b59e2"></path><path d="M0 66L22.8 68.2C45.7 70.3 91.3 74.7 137 79.5C182.7 84.3 228.3 89.7 274 87.7C319.7 85.7 365.3 76.3 411.2 71.8C457 67.3 503 67.7 548.8 70C594.7 72.3 640.3 76.7 686 77.7C731.7 78.7 777.3 76.3 823 73.3C868.7 70.3 914.3 66.7 937.2 64.8L960 63L960 0L937.2 0C914.3 0 868.7 0 823 0C777.3 0 731.7 0 686 0C640.3 0 594.7 0 548.8 0C503 0 457 0 411.2 0C365.3 0 319.7 0 274 0C228.3 0 182.7 0 137 0C91.3 0 45.7 0 22.8 0L0 0Z" fill="#355ac5"></path><path d="M0 55L22.8 56.3C45.7 57.7 91.3 60.3 137 61.2C182.7 62 228.3 61 274 62.2C319.7 63.3 365.3 66.7 411.2 65C457 63.3 503 56.7 548.8 53.2C594.7 49.7 640.3 49.3 686 48.7C731.7 48 777.3 47 823 48.8C868.7 50.7 914.3 55.3 937.2 57.7L960 60L960 0L937.2 0C914.3 0 868.7 0 823 0C777.3 0 731.7 0 686 0C640.3 0 594.7 0 548.8 0C503 0 457 0 411.2 0C365.3 0 319.7 0 274 0C228.3 0 182.7 0 137 0C91.3 0 45.7 0 22.8 0L0 0Z" fill="#0054a2"></path><path d="M0 38L22.8 40.3C45.7 42.7 91.3 47.3 137 49.2C182.7 51 228.3 50 274 48.7C319.7 47.3 365.3 45.7 411.2 44.5C457 43.3 503 42.7 548.8 44.5C594.7 46.3 640.3 50.7 686 48.2C731.7 45.7 777.3 36.3 823 34C868.7 31.7 914.3 36.3 937.2 38.7L960 41L960 0L937.2 0C914.3 0 868.7 0 823 0C777.3 0 731.7 0 686 0C640.3 0 594.7 0 548.8 0C503 0 457 0 411.2 0C365.3 0 319.7 0 274 0C228.3 0 182.7 0 137 0C91.3 0 45.7 0 22.8 0L0 0Z" fill="#054a7c"></path><path d="M0 30L22.8 29.3C45.7 28.7 91.3 27.3 137 24.5C182.7 21.7 228.3 17.3 274 16.3C319.7 15.3 365.3 17.7 411.2 20.2C457 22.7 503 25.3 548.8 25.2C594.7 25 640.3 22 686 21.7C731.7 21.3 777.3 23.7 823 24C868.7 24.3 914.3 22.7 937.2 21.8L960 21L960 0L937.2 0C914.3 0 868.7 0 823 0C777.3 0 731.7 0 686 0C640.3 0 594.7 0 548.8 0C503 0 457 0 411.2 0C365.3 0 319.7 0 274 0C228.3 0 182.7 0 137 0C91.3 0 45.7 0 22.8 0L0 0Z" fill="#203e56"></path></svg>