<svg id="visual" viewBox="0 0 3440 1440" width="3440" height="1440" xmlns="http://www.w3.org/2000/svg" xmlns:xlink="http://www.w3.org/1999/xlink" version="1.1"><path d="M0 289L430 275L860 332L1290 159L1720 361L2150 102L2580 289L3010 131L3440 347L3440 0L3010 0L2580 0L2150 0L1720 0L1290 0L860 0L430 0L0 0Z" fill="#001220"></path><path d="M0 375L430 591L860 577L1290 447L1720 620L2150 217L2580 548L3010 275L3440 692L3440 345L3010 129L2580 287L2150 100L1720 359L1290 157L860 330L430 273L0 287Z" fill="#002a53"></path><path d="M0 519L430 750L860 764L1290 635L1720 735L2150 491L2580 692L3010 534L3440 779L3440 690L3010 273L2580 546L2150 215L1720 618L1290 445L860 575L430 589L0 373Z" fill="#003f8a"></path><path d="M0 894L430 1211L860 1052L1290 1110L1720 1167L2150 836L2580 1167L3010 1009L3440 1196L3440 777L3010 532L2580 690L2150 489L1720 733L1290 633L860 762L430 748L0 517Z" fill="#3650bf"></path><path d="M0 1441L430 1441L860 1441L1290 1441L1720 1441L2150 1441L2580 1441L3010 1441L3440 1441L3440 1194L3010 1007L2580 1165L2150 834L1720 1165L1290 1108L860 1050L430 1209L0 892Z" fill="#715df2"></path></svg>